<svg xmlns="http://www.w3.org/2000/svg" viewBox="0 0 500 750"><defs><style>.cls-1{fill:#134dd1;}.cls-2{font-size:60px;fill:#fff;font-family:BebasNeueBold, Bebas Neue;font-weight:700;}.cls-3{letter-spacing:-0.04em;}.cls-4{letter-spacing:0em;}.cls-5{font-size:36px;font-family:Lato-BoldItalic, Lato;font-style:italic;}.cls-6{letter-spacing:-0.12em;}.cls-7{letter-spacing:0em;}.cls-8{letter-spacing:0em;}.cls-9{letter-spacing:-0.01em;}.cls-10{letter-spacing:-0.01em;}.cls-11{letter-spacing:0em;}.cls-12{letter-spacing:-0.04em;}.cls-13{letter-spacing:0em;}.cls-14{letter-spacing:-0.01em;}.cls-15{letter-spacing:-0.02em;}.cls-16{letter-spacing:-0.02em;}.cls-17{letter-spacing:-0.01em;}.cls-18{letter-spacing:-0.04em;}.cls-19{letter-spacing:0em;}.cls-20{letter-spacing:-0.01em;}.cls-21{letter-spacing:-0.02em;}.cls-22{letter-spacing:-0.03em;}.cls-23{letter-spacing:-0.02em;}.cls-24{letter-spacing:-0.02em;}.cls-25{letter-spacing:-0.01em;}.cls-26{letter-spacing:-0.01em;}.cls-27{letter-spacing:-0.02em;}</style></defs><title>contact</title><g id="Layer_1" data-name="Layer 1"><rect class="cls-1" x="0.5" y="0.5" width="499" height="749"/><path d="M499,1V749H1V1H499m1-1H0V750H500V0Z"/></g><g id="Layer_2" data-name="Layer 2"><text class="cls-2" transform="translate(169.75 125.41)">con<tspan class="cls-3" x="72.54" y="0">t</tspan><tspan class="cls-4" x="91.62" y="0">a</tspan><tspan x="115.98" y="0">ct</tspan><tspan class="cls-5"><tspan x="-55.97" y="60">marian</tspan><tspan class="cls-6" x="51.11" y="60">@</tspan><tspan x="74.58" y="60">bitb</tspan><tspan class="cls-7" x="135.38" y="60">e</tspan><tspan class="cls-8" x="152.88" y="60">e.uk</tspan><tspan class="cls-9" x="-86.56" y="120">y</tspan><tspan x="-69.37" y="120">outube.</tspan><tspan class="cls-10" x="47.11" y="120">c</tspan><tspan class="cls-11" x="63.06" y="120">om</tspan><tspan class="cls-12" x="110.45" y="120">/</tspan><tspan class="cls-10" x="124.49" y="120">c</tspan><tspan x="140.44" y="120">od</tspan><tspan class="cls-13" x="178.71" y="120">e</tspan><tspan class="cls-14" x="196.08" y="120">t</tspan><tspan x="208.89" y="120">ap</tspan><tspan class="cls-15" x="-93.28" y="180">f</tspan><tspan x="-82.08" y="180">a</tspan><tspan class="cls-10" x="-63.33" y="180">c</tspan><tspan x="-47.38" y="180">ebook.</tspan><tspan class="cls-10" x="53.83" y="180">c</tspan><tspan class="cls-11" x="69.78" y="180">om</tspan><tspan class="cls-12" x="117.17" y="180">/</tspan><tspan class="cls-10" x="131.21" y="180">c</tspan><tspan x="147.16" y="180">od</tspan><tspan class="cls-13" x="185.43" y="180">e</tspan><tspan class="cls-14" x="202.8" y="180">t</tspan><tspan x="215.62" y="180">ap</tspan><tspan x="-113.78" y="240">ins</tspan><tspan class="cls-14" x="-70.89" y="240">t</tspan><tspan x="-58.07" y="240">ag</tspan><tspan class="cls-16" x="-21.23" y="240">r</tspan><tspan x="-9.2" y="240">am.</tspan><tspan class="cls-10" x="46.67" y="240">c</tspan><tspan x="62.62" y="240">om</tspan><tspan class="cls-12" x="110.01" y="240">/</tspan><tspan class="cls-10" x="124.05" y="240">c</tspan><tspan x="140" y="240">od</tspan><tspan class="cls-13" x="178.27" y="240">e</tspan><tspan class="cls-14" x="195.64" y="240">t</tspan><tspan x="208.45" y="240">apio</tspan><tspan x="-88.35" y="300">twi</tspan><tspan class="cls-17" x="-39.78" y="300">tt</tspan><tspan class="cls-11" x="-16.04" y="300">e</tspan><tspan class="cls-18" x="1.49" y="300">r</tspan><tspan class="cls-8" x="12.67" y="300">.</tspan><tspan class="cls-10" x="21.23" y="300">c</tspan><tspan class="cls-11" x="37.18" y="300">om</tspan><tspan class="cls-12" x="84.58" y="300">/</tspan><tspan class="cls-10" x="98.62" y="300">c</tspan><tspan x="114.56" y="300">od</tspan><tspan class="cls-13" x="152.83" y="300">e</tspan><tspan class="cls-14" x="170.2" y="300">t</tspan><tspan x="183.02" y="300">apio</tspan><tspan class="cls-10" x="0.85" y="360">c</tspan><tspan x="16.8" y="360">od</tspan><tspan class="cls-13" x="55.07" y="360">e</tspan><tspan class="cls-14" x="72.44" y="360">t</tspan><tspan x="85.25" y="360">ap.io</tspan><tspan x="-87.06" y="420">github.</tspan><tspan class="cls-10" x="19.95" y="420">c</tspan><tspan class="cls-11" x="35.9" y="420">om</tspan><tspan class="cls-12" x="83.29" y="420">/</tspan><tspan class="cls-10" x="97.33" y="420">c</tspan><tspan x="113.28" y="420">od</tspan><tspan class="cls-19" x="151.54" y="420">e</tspan><tspan class="cls-20" x="168.91" y="420">t</tspan><tspan x="181.73" y="420">apio</tspan><tspan class="cls-10" x="-66.5" y="480">c</tspan><tspan x="-50.56" y="480">od</tspan><tspan class="cls-13" x="-12.29" y="480">e</tspan><tspan class="cls-14" x="5.08" y="480">t</tspan><tspan x="17.9" y="480">ap.io/lin</tspan><tspan class="cls-21" x="144.63" y="480">k</tspan><tspan class="cls-8" x="161.75" y="480">edin</tspan><tspan class="cls-10" x="-111.49" y="540">c</tspan><tspan x="-95.54" y="540">od</tspan><tspan class="cls-13" x="-57.27" y="540">e</tspan><tspan class="cls-14" x="-39.9" y="540">t</tspan><tspan x="-27.08" y="540">ap.io</tspan><tspan class="cls-22" x="47.31" y="540">/</tspan><tspan class="cls-8" x="61.56" y="540">s</tspan><tspan class="cls-20" x="76.16" y="540">t</tspan><tspan x="88.98" y="540">ac</tspan><tspan class="cls-23" x="124.06" y="540">k</tspan><tspan class="cls-24" x="141.18" y="540">o</tspan><tspan class="cls-25" x="159.43" y="540">v</tspan><tspan x="176.66" y="540">erfl</tspan><tspan class="cls-26" x="227.49" y="540">o</tspan><tspan class="cls-27" x="246.06" y="540">w</tspan></tspan></text></g></svg>